<?xml version="1.0" encoding="utf-8"?>
<!-- Generator: Adobe Illustrator 24.0.0, SVG Export Plug-In . SVG Version: 6.00 Build 0)  -->
<svg version="1.1" id="Layer_1" xmlns="http://www.w3.org/2000/svg" xmlns:xlink="http://www.w3.org/1999/xlink" x="0px" y="0px"
	 viewBox="0 0 1200 410" style="enable-background:new 0 0 1200 410;" xml:space="preserve">
<style type="text/css">
	.st0{fill:#FFFFFF;}
	.st1{fill:#737678;}
	.st2{fill:#E0DCD7;}
	.st3{fill:#CAB44B;}
	.st4{fill:#A4A6A8;}
</style>
<g>
	<rect class="st0" width="1200" height="410"/>
	<g>
		<g id="XMLID_960_">
			<path id="XMLID_2258_" class="st1" d="M467.92,288.8v-0.1c0-7.26,5.1-13.04,11.87-13.04c7.01,0,11.48,5.69,11.48,13.09
				c0,0.44,0,0.59-0.05,0.98h-20.74c0.44,6.23,4.9,9.86,9.81,9.86c3.87,0,6.52-1.72,8.58-3.92l1.67,1.47
				c-2.55,2.75-5.54,4.71-10.35,4.71C473.61,301.85,467.92,296.6,467.92,288.8z M488.66,287.58c-0.34-5.05-3.24-9.71-8.97-9.71
				c-4.95,0-8.78,4.17-9.22,9.71H488.66z"/>
			<path id="XMLID_2256_" class="st1" d="M501.02,298.12l1.42-1.91c2.75,2.11,5.79,3.29,8.97,3.29c3.38,0,6.03-1.86,6.03-4.76v-0.1
				c0-2.94-3.14-4.02-6.62-5c-4.07-1.18-8.58-2.4-8.58-6.87v-0.1c0-4.02,3.38-6.91,8.24-6.91c2.99,0,6.38,1.08,8.88,2.75l-1.28,2.01
				c-2.3-1.52-5.05-2.5-7.7-2.5c-3.43,0-5.69,1.86-5.69,4.36v0.1c0,2.8,3.38,3.83,6.96,4.86c4.02,1.13,8.24,2.6,8.24,7.01v0.1
				c0,4.46-3.83,7.31-8.63,7.31C507.64,301.75,503.66,300.28,501.02,298.12z"/>
			<path id="XMLID_2253_" class="st1" d="M532.44,276.25h2.4v5.59c2.16-3.29,5.35-6.18,10.3-6.18c6.03,0,12.16,4.86,12.16,13v0.1
				c0,8.14-6.13,13.09-12.16,13.09c-5,0-8.24-2.84-10.3-5.98v13.24h-2.4V276.25z M554.71,288.85v-0.1c0-6.57-4.56-10.79-9.81-10.79
				c-5.2,0-10.2,4.36-10.2,10.74v0.1c0,6.42,5,10.74,10.2,10.74C550.34,299.54,554.71,295.57,554.71,288.85z"/>
			<path id="XMLID_2250_" class="st1" d="M567.65,294v-0.1c0-5.2,4.46-8.14,10.94-8.14c3.48,0,5.89,0.44,8.29,1.08v-1.08
				c0-5.05-3.09-7.65-8.24-7.65c-3.04,0-5.54,0.83-7.85,2.01l-0.88-2.11c2.75-1.27,5.44-2.16,8.88-2.16c3.38,0,6.08,0.93,7.9,2.75
				c1.67,1.67,2.55,3.97,2.55,7.06v15.59h-2.35v-4.17c-1.72,2.4-4.81,4.76-9.56,4.76C572.65,301.85,567.65,299.2,567.65,294z
				 M586.92,291.89v-2.84c-2.11-0.54-4.9-1.13-8.48-1.13c-5.3,0-8.24,2.35-8.24,5.84v0.1c0,3.63,3.43,5.74,7.26,5.74
				C582.56,299.59,586.92,296.45,586.92,291.89z"/>
			<path id="XMLID_2248_" class="st1" d="M601.04,288.85v-0.1c0-7.01,5.59-13.09,12.75-13.09c4.71,0,7.65,2.16,10,4.61l-1.72,1.77
				c-2.16-2.21-4.61-4.12-8.34-4.12c-5.69,0-10.1,4.76-10.1,10.74v0.1c0,6.03,4.56,10.84,10.3,10.84c3.53,0,6.28-1.81,8.39-4.17
				l1.67,1.47c-2.55,2.89-5.59,4.95-10.2,4.95C606.58,301.85,601.04,295.86,601.04,288.85z"/>
			<path id="XMLID_2245_" class="st1" d="M635.7,266.44h2.99v3.29h-2.99V266.44z M635.99,276.25h2.4v25.01h-2.4V276.25z"/>
			<path id="XMLID_2242_" class="st1" d="M651.05,288.85v-0.1c0-7.01,5.44-13.09,12.9-13.09c7.41,0,12.8,5.98,12.8,13v0.1
				c0,7.01-5.44,13.09-12.9,13.09C656.44,301.85,651.05,295.86,651.05,288.85z M674.14,288.85v-0.1c0-6.03-4.51-10.84-10.3-10.84
				c-5.93,0-10.2,4.85-10.2,10.74v0.1c0,6.03,4.51,10.84,10.3,10.84C669.88,299.59,674.14,294.74,674.14,288.85z"/>
			<path id="XMLID_2194_" class="st1" d="M686.89,298.12l1.42-1.91c2.75,2.11,5.79,3.29,8.97,3.29c3.38,0,6.03-1.86,6.03-4.76v-0.1
				c0-2.94-3.14-4.02-6.62-5c-4.07-1.18-8.58-2.4-8.58-6.87v-0.1c0-4.02,3.38-6.91,8.24-6.91c2.99,0,6.38,1.08,8.88,2.75l-1.28,2.01
				c-2.3-1.52-5.05-2.5-7.7-2.5c-3.43,0-5.69,1.86-5.69,4.36v0.1c0,2.8,3.38,3.83,6.96,4.86c4.02,1.13,8.24,2.6,8.24,7.01v0.1
				c0,4.46-3.83,7.31-8.63,7.31C693.51,301.75,689.54,300.28,686.89,298.12z"/>
			<path id="XMLID_2192_" class="st1" d="M747.34,285.17H736.7v-2.35h10.64v-10.54h2.45v10.54h10.64v2.35H749.8v10.54h-2.45V285.17z
				"/>
			<path id="XMLID_2190_" class="st1" d="M794.16,294.83v-16.38h-3.63v-2.21h3.63v-7.99h2.4v7.99h8.78v2.21h-8.78v16.13
				c0,3.58,2.11,4.85,5,4.85c1.23,0,2.26-0.24,3.68-0.88v2.26c-1.28,0.59-2.5,0.88-4.07,0.88
				C797.3,301.7,794.16,299.59,794.16,294.83z"/>
			<path id="XMLID_2187_" class="st1" d="M817.4,266.44h2.99v3.29h-2.99V266.44z M817.7,276.25h2.4v25.01h-2.4V276.25z"/>
			<path id="XMLID_2184_" class="st1" d="M832.75,288.8v-0.1c0-7.26,5.1-13.04,11.87-13.04c7.01,0,11.48,5.69,11.48,13.09
				c0,0.44,0,0.59-0.05,0.98H835.3c0.44,6.23,4.9,9.86,9.81,9.86c3.87,0,6.52-1.72,8.58-3.92l1.67,1.47
				c-2.55,2.75-5.54,4.71-10.35,4.71C838.44,301.85,832.75,296.6,832.75,288.8z M853.49,287.58c-0.34-5.05-3.24-9.71-8.97-9.71
				c-4.95,0-8.78,4.17-9.22,9.71H853.49z"/>
			<path id="XMLID_2048_" class="st1" d="M868,276.25h2.4v4.46c1.62-2.6,3.87-5.05,8.34-5.05c4.37,0,7.06,2.5,8.43,5.39
				c1.62-2.8,4.32-5.39,9.02-5.39c5.93,0,9.61,4.17,9.61,10.45v15.15h-2.4V286.4c0-5.39-2.8-8.53-7.4-8.53
				c-4.22,0-7.9,3.24-7.9,8.83v14.56h-2.4v-15.01c0-5.2-2.85-8.39-7.31-8.39s-7.99,3.92-7.99,8.97v14.42H868V276.25z"/>
			<path id="XMLID_2045_" class="st1" d="M919.53,276.25h2.4v5.59c2.16-3.29,5.35-6.18,10.3-6.18c6.03,0,12.16,4.86,12.16,13v0.1
				c0,8.14-6.13,13.09-12.16,13.09c-5,0-8.24-2.84-10.3-5.98v13.24h-2.4V276.25z M941.8,288.85v-0.1c0-6.57-4.56-10.79-9.81-10.79
				c-5.2,0-10.2,4.36-10.2,10.74v0.1c0,6.42,5,10.74,10.2,10.74C937.43,299.54,941.8,295.57,941.8,288.85z"/>
			<path id="XMLID_2042_" class="st1" d="M955.08,288.85v-0.1c0-7.01,5.44-13.09,12.9-13.09c7.41,0,12.8,5.98,12.8,13v0.1
				c0,7.01-5.44,13.09-12.9,13.09C960.47,301.85,955.08,295.86,955.08,288.85z M978.18,288.85v-0.1c0-6.03-4.51-10.84-10.3-10.84
				c-5.93,0-10.2,4.85-10.2,10.74v0.1c0,6.03,4.51,10.84,10.3,10.84C973.91,299.59,978.18,294.74,978.18,288.85z"/>
			<g id="XMLID_1813_">
				<path id="XMLID_2039_" class="st1" d="M444.47,174.3c0,25.15-17.64,42.79-41.97,42.79c-24.17,0-41.97-17.64-41.97-42.79
					c0-24.82,17.8-42.63,41.97-42.63C426.84,131.68,444.47,149.48,444.47,174.3z M367.23,174.47c0,21.4,14.86,36.26,35.28,36.26
					c20.58,0,35.28-14.86,35.28-36.26c0-21.39-14.7-36.26-35.28-36.26C382.09,138.21,367.23,153.07,367.23,174.47z"/>
				<path id="XMLID_1814_" class="st1" d="M402.5,217.66c-24.65,0-42.54-18.23-42.54-43.36c0-25.03,17.89-43.19,42.54-43.19
					c24.65,0,42.54,18.17,42.54,43.19C445.04,199.43,427.15,217.66,402.5,217.66z M402.5,132.25c-23.99,0-41.41,17.69-41.41,42.06
					c0,24.47,17.41,42.22,41.41,42.22c24.38,0,41.4-17.36,41.4-42.22C443.91,149.93,426.49,132.25,402.5,132.25z M402.5,211.29
					c-20.77,0-35.85-15.49-35.85-36.83s15.08-36.82,35.85-36.82c21.1,0,35.85,15.14,35.85,36.82S423.61,211.29,402.5,211.29z
					 M402.5,138.78c-20.44,0-34.71,14.68-34.71,35.69c0,21.01,14.27,35.69,34.71,35.69s34.71-14.68,34.71-35.69
					C437.21,153.45,422.94,138.78,402.5,138.78z"/>
			</g>
			<g id="XMLID_1807_">
				<path id="XMLID_1811_" class="st1" d="M476.17,153.23c5.39-13.72,16.5-21.23,31.69-21.56v7.02c-18.78,0-30.22,12.41-31.69,32.17
					v46.06h-6.86v-85.09h6.86V153.23z"/>
				<path id="XMLID_1808_" class="st1" d="M476.74,217.5h-7.99v-86.23h7.99v19.22c5.78-12.22,16.73-19.07,31.11-19.38l0.58-0.01
					v8.17h-0.57c-18.01,0-29.64,11.83-31.12,31.65L476.74,217.5z M469.88,216.36h5.72v-45.49c1.51-20.31,13.34-32.49,31.69-32.74
					v-5.88c-14.77,0.5-25.34,7.81-30.59,21.18l-1.1,2.79v-23.82h-5.72V216.36z"/>
			</g>
			<g id="XMLID_1501_">
				<path id="XMLID_1529_" class="st1" d="M598.01,207.62c0,25.15-16.17,41.16-41.16,40.99c-13.56-0.33-24.5-4.9-34.46-13.88
					l3.59-5.06c8.82,8.33,18.46,12.25,30.71,12.58c21.07,0.16,34.79-13.39,34.79-34.62v-16c-5.88,13.56-18.62,21.89-34.79,21.89
					c-22.87,0-39.36-17.15-39.36-40.83c0-23.85,16.5-40.99,39.2-40.99c16.33,0,28.91,8.49,34.95,22.05v-21.89h6.53V207.62z
					 M591.48,172.83c0-20.25-14.37-34.95-33.97-34.95c-19.6,0-33.81,14.7-33.81,34.95c0,20.09,14.05,34.79,33.81,34.79
					C577.1,207.62,591.48,192.92,591.48,172.83z"/>
				<path id="XMLID_1502_" class="st1" d="M557.23,249.18c-0.13,0-0.26,0-0.38,0c-13.52-0.33-24.59-4.78-34.84-14.03l-0.37-0.34
					l4.26-6.01l0.48,0.45c8.75,8.27,18.1,12.09,30.33,12.42c0.12,0,0.25,0,0.37,0c10.02,0,18.49-3.15,24.5-9.12
					c6.11-6.06,9.33-14.68,9.33-24.94v-13.48c-6.45,12.53-19.05,19.93-34.22,19.93c-23.14,0-39.93-17.41-39.93-41.4
					c0-24.08,16.72-41.56,39.76-41.56c15.32,0,27.72,7.3,34.38,20.13v-19.97h7.67v76.35c0,12.49-3.94,23-11.39,30.4
					C579.84,245.33,569.48,249.18,557.23,249.18z M523.15,234.65c9.93,8.82,20.66,13.08,33.72,13.4c0.13,0,0.25,0,0.38,0
					c11.94,0,22.01-3.74,29.15-10.83c7.23-7.18,11.05-17.42,11.05-29.6v-75.21h-5.4v23.99l-1.09-2.44
					c-6.15-13.8-18.7-21.71-34.43-21.71c-22.38,0-38.63,17-38.63,40.43c0,23.33,16.32,40.26,38.79,40.26
					c15.6,0,28.41-8.05,34.27-21.54l1.09-2.51v18.74c0,10.57-3.34,19.47-9.67,25.75c-6.23,6.18-14.98,9.45-25.31,9.45
					c-0.13,0-0.25,0-0.38,0c-12.15-0.32-21.89-4.23-30.61-12.28L523.15,234.65z M557.5,208.19c-19.92,0-34.38-14.87-34.38-35.35
					c0-20.58,14.46-35.52,34.38-35.52c20.01,0,34.54,14.94,34.54,35.52C592.04,193.32,577.52,208.19,557.5,208.19z M557.5,138.45
					c-19.26,0-33.24,14.46-33.24,34.38c0,19.83,13.98,34.22,33.24,34.22c19.35,0,33.4-14.39,33.4-34.22
					C590.91,152.91,576.86,138.45,557.5,138.45z"/>
			</g>
			<g id="XMLID_1402_">
				<path id="XMLID_1498_" class="st1" d="M684.25,200.11c-7.19,11.76-19.27,16.99-33.97,16.99c-16.82,0-28.09-10.62-28.09-24.99
					c0-14.21,12.09-22.87,31.69-22.87h30.21v-8.33c-0.16-14.37-8.49-23.03-25.48-23.03c-10.62,0-19.6,4.25-28.58,11.11l-3.27-5.23
					c10.12-7.35,19.92-12.09,32.83-12.09c20.09,0,31.03,11.1,31.2,28.74l0.33,56.51h-6.7L684.25,200.11z M684.25,189.17v-13.88
					h-29.72c-16.66,0-25.81,5.72-25.81,16.66c0,11.27,8.66,18.95,22.54,18.95C667.1,210.89,679.02,204.03,684.25,189.17z"/>
				<path id="XMLID_1403_" class="st1" d="M650.28,217.66c-16.87,0-28.66-10.51-28.66-25.56c0-14.45,12.36-23.43,32.25-23.43h29.65
					v-7.76c-0.17-14.69-8.78-22.46-24.91-22.46c-9.57,0-18.28,3.39-28.24,10.99l-0.5,0.38l-3.88-6.2l0.43-0.31
					c8.31-6.03,18.74-12.19,33.16-12.19c19.72,0,31.59,10.96,31.76,29.31l0.33,57.08h-7.83L683.7,202
					C676.68,212.26,665.17,217.66,650.28,217.66z M653.87,169.81c-19.19,0-31.12,8.54-31.12,22.3c0,14.38,11.32,24.42,27.52,24.42
					c15.22,0,26.8-5.78,33.49-16.71l1.03-1.69l0.18,18.24h5.56l-0.32-55.94c-0.17-17.91-11.33-28.18-30.63-28.18
					c-11.22,0-20.54,3.39-32.06,11.67l2.65,4.25c9.96-7.5,18.75-10.85,28.43-10.85c16.62,0,25.87,8.38,26.04,23.59v8.9H653.87z
					 M651.26,211.46c-14.04,0-23.11-7.66-23.11-19.51c0-11.27,9.12-17.22,26.37-17.22h30.29l-0.03,14.64
					C679.7,203.81,668.11,211.46,651.26,211.46z M654.53,175.85c-11.51,0-25.24,2.79-25.24,16.09c0,11.16,8.62,18.38,21.97,18.38
					c16.29,0,27.5-7.35,32.42-21.25v-13.22H654.53z"/>
			</g>
			<g id="XMLID_1396_">
				<path id="XMLID_1400_" class="st1" d="M796.95,164.99v51.94h-6.86V166.3c0-17.48-10.29-27.76-27.76-27.76
					c-19.6,0.49-31.68,12.74-33.15,32.34v46.06h-6.86v-85.09h6.86v21.72c5.72-14.04,17.8-21.56,34.79-21.88
					C784.7,131.68,796.95,144.25,796.95,164.99z"/>
				<path id="XMLID_1397_" class="st1" d="M797.52,217.5h-8v-51.2c0-17.28-9.91-27.2-27.2-27.2c-18.94,0.47-31.13,12.37-32.59,31.81
					l0,46.58h-7.99v-86.23h7.99v19.62c6.15-12.64,17.92-19.47,34.21-19.78c21.03,0,33.57,12.67,33.57,33.88V217.5z M790.66,216.36
					h5.73v-51.37c0-20.51-12.12-32.75-32.42-32.75c-16.81,0.32-28.66,7.77-34.26,21.53l-1.09,2.69v-24.05h-5.72v83.95h5.72v-45.49
					c1.51-20.13,14.11-32.42,33.71-32.91c17.76,0,28.35,10.59,28.35,28.33V216.36z"/>
			</g>
			<g id="XMLID_1387_">
				<path id="XMLID_1393_" class="st1" d="M837.3,107.34c0,3.43-2.61,6.04-5.72,6.04c-3.1,0-5.72-2.61-5.72-6.04
					c0-3.27,2.61-5.88,5.72-5.88C834.68,101.46,837.3,104.08,837.3,107.34z M828.15,216.93v-85.09h6.7v85.09H828.15z"/>
				<path id="XMLID_1388_" class="st1" d="M835.42,217.5h-7.83v-86.23h7.83V217.5z M828.72,216.36h5.56v-83.95h-5.56V216.36z
					 M831.58,113.95c-3.46,0-6.28-2.97-6.28-6.61c0-3.56,2.82-6.45,6.28-6.45c3.46,0,6.28,2.89,6.28,6.45
					C837.87,110.99,835.05,113.95,831.58,113.95z M831.58,102.03c-2.84,0-5.15,2.38-5.15,5.31c0,3.02,2.31,5.47,5.15,5.47
					c2.84,0,5.15-2.46,5.15-5.47C836.73,104.41,834.42,102.03,831.58,102.03z"/>
			</g>
			<g id="XMLID_1381_">
				<path id="XMLID_1385_" class="st1" d="M869.15,210.72l59.29,0.16v6.21l-66.96-0.16v-6.21l58.14-72.51h-56.67v-6.37l64.35,0.16
					v6.21L869.15,210.72z"/>
				<path id="XMLID_1382_" class="st1" d="M929.01,217.66l-0.57,0l-67.53-0.17v-6.97l0.13-0.16l57.4-71.59h-56.06v-7.51l0.57,0
					l64.91,0.17v6.97l-0.13,0.16l-57.4,71.59l58.67,0.16V217.66z M862.04,216.36l65.83,0.16v-5.07l-59.9-0.16l58.75-73.28v-5.44
					l-63.21-0.16v5.23h57.29l-58.76,73.28V216.36z"/>
			</g>
			<g id="XMLID_967_">
				<path id="XMLID_973_" class="st1" d="M1023.66,176.26h-74.31c0.98,20.74,15.35,34.62,35.11,34.62
					c11.59,0,21.89-4.25,28.74-11.76l3.92,4.41c-7.84,8.49-19.43,13.56-32.99,13.56c-24.01,0-41.48-17.64-41.48-42.63
					c0-24.99,17.48-42.79,41.48-42.79C1009.12,131.68,1024.15,149.97,1023.66,176.26z M1017.45,170.22
					c-1.31-19.27-13.88-32.34-33.32-32.34c-19.11,0-32.99,13.07-34.63,32.34H1017.45z"/>
				<path id="XMLID_968_" class="st1" d="M984.14,217.66c-24.37,0-42.05-18.17-42.05-43.2c0-25.12,17.69-43.36,42.05-43.36
					c11.41,0,21.18,3.81,28.25,11.01c7.9,8.04,12.1,20.18,11.84,34.15l-0.01,0.56h-74.27c1.2,20.06,15.01,33.49,34.51,33.49
					c11.45,0,21.51-4.11,28.33-11.57l0.42-0.46l4.68,5.26l-0.35,0.38C1009.36,212.78,997.5,217.66,984.14,217.66z M984.14,132.25
					c-23.71,0-40.92,17.76-40.92,42.22c0,24.37,17.21,42.06,40.92,42.06c12.85,0,24.27-4.61,32.22-13l-3.16-3.56
					c-7.02,7.41-17.2,11.48-28.73,11.48c-20.35,0-34.69-14.13-35.68-35.17l-0.03-0.59h74.35c0.14-13.44-3.95-25.06-11.52-32.78
					C1004.72,135.93,995.24,132.25,984.14,132.25z M1018.06,170.79h-69.17l0.05-0.62c1.66-19.65,15.81-32.86,35.19-32.86
					c19.23,0,32.53,12.9,33.88,32.87L1018.06,170.79z M950.13,169.65h66.71c-1.54-18.98-14.32-31.2-32.71-31.2
					C965.58,138.45,951.99,150.96,950.13,169.65z"/>
			</g>
			<g id="XMLID_961_">
				<path id="XMLID_965_" class="st1" d="M1088.02,211.05c-5.39,3.76-11.43,6.04-17.8,6.04c-12.09,0.16-19.27-7.68-19.27-23.68
					v-53.57h-12.41v-5.88h12.41V112.9h6.53v21.07h28.91v5.88h-28.91v52.75c0,12.09,4.74,17.97,13.56,17.8c4.9,0,9.96-1.8,14.37-4.9
					L1088.02,211.05z"/>
				<path id="XMLID_962_" class="st1" d="M1069.84,217.66c-5.48,0-9.92-1.63-13.19-4.86c-4.16-4.11-6.28-10.63-6.28-19.39v-53
					h-12.41v-7.01h12.41v-21.07h7.67v21.07h28.91v7.01h-28.91v52.18c0,6.63,1.45,11.42,4.3,14.22c2.1,2.07,5.02,3.09,8.67,3.01
					c4.67,0,9.66-1.7,14.06-4.8l0.55-0.39l3.1,6.6l-0.39,0.28c-5.85,4.08-11.95,6.15-18.13,6.15
					C1070.09,217.66,1069.96,217.66,1069.84,217.66z M1039.1,139.27h12.41v54.14c0,8.44,2,14.7,5.94,18.59
					c3.05,3.01,7.22,4.53,12.4,4.53c5.94,0.02,11.8-1.83,17.45-5.67l-2.12-4.51c-4.45,2.98-9.45,4.62-14.14,4.62
					c-3.94,0.1-7.15-1.05-9.48-3.34c-3.08-3.03-4.65-8.08-4.65-15.03v-53.32h28.91v-4.74h-28.91v-21.07h-5.4v21.07h-12.41V139.27z"
					/>
			</g>
		</g>
		<g id="XMLID_955_">
			<path id="XMLID_959_" class="st2" d="M140.74,204.7L140.74,204.7c0-35.44,28.83-64.27,64.27-64.27l0-29.47
				c-51.69,0-93.74,42.05-93.75,93.73v0.01H140.74z"/>
			<path id="XMLID_958_" class="st3" d="M269.29,204.7h29.47c0-51.68-42.05-93.74-93.73-93.74l0,29.47
				C240.46,140.44,269.29,169.27,269.29,204.7z"/>
			<path id="XMLID_957_" class="st1" d="M269.29,204.7L269.29,204.7c0,35.44-28.83,64.27-64.27,64.27l0,29.47
				c51.69,0,93.74-42.05,93.75-93.73v0L269.29,204.7z"/>
			<path id="XMLID_956_" class="st4" d="M140.74,204.7h-29.47c0,51.68,42.05,93.74,93.73,93.74l0-29.47
				C169.57,268.97,140.74,240.14,140.74,204.7z"/>
		</g>
	</g>
</g>
</svg>
